<svg width="250" height="143" viewBox="0 0 250 143" fill="none" xmlns="http://www.w3.org/2000/svg">
<g filter="url(#filter0_f_4_38)">
<rect x="50" y="50" width="150" height="43" rx="10" fill="url(#paint0_linear_4_38)"/>
</g>
<rect x="20" y="30" width="210" height="60" rx="10" fill="url(#paint1_linear_4_38)"/>
<path d="M85.9141 60.1797H81.6016V62.8906H86.6953V65H78.8594V53.625H86.7109V55.7422H81.6016V58.1406H85.9141V60.1797ZM91.1172 58.875L92.3438 56.5469H95.0781L92.8516 60.6641L95.1875 65H92.4375L91.1094 62.5L89.8047 65H87.0391L89.3828 60.6641L87.1641 56.5469H89.9297L91.1172 58.875ZM103.773 60.8359C103.773 62.1484 103.477 63.1979 102.883 63.9844C102.294 64.7656 101.497 65.1562 100.492 65.1562C99.7161 65.1562 99.0781 64.8724 98.5781 64.3047V68.25H95.9453V56.5469H98.4062L98.4844 57.3281C98.9896 56.7031 99.6536 56.3906 100.477 56.3906C101.518 56.3906 102.328 56.776 102.906 57.5469C103.484 58.3125 103.773 59.3672 103.773 60.7109V60.8359ZM101.141 60.6719C101.141 59.1719 100.703 58.4219 99.8281 58.4219C99.2031 58.4219 98.7865 58.6458 98.5781 59.0938V62.4219C98.8073 62.8906 99.2292 63.125 99.8438 63.125C100.682 63.125 101.115 62.401 101.141 60.9531V60.6719ZM107.719 65H105.078V53H107.719V65ZM109.016 60.6953C109.016 59.8516 109.18 59.1016 109.508 58.4453C109.836 57.7839 110.307 57.276 110.922 56.9219C111.536 56.5677 112.258 56.3906 113.086 56.3906C114.352 56.3906 115.349 56.7839 116.078 57.5703C116.807 58.3516 117.172 59.4167 117.172 60.7656V60.8594C117.172 62.1771 116.805 63.224 116.07 64C115.341 64.7708 114.352 65.1562 113.102 65.1562C111.898 65.1562 110.932 64.7969 110.203 64.0781C109.474 63.3542 109.081 62.375 109.023 61.1406L109.016 60.6953ZM111.648 60.8594C111.648 61.6406 111.771 62.2135 112.016 62.5781C112.26 62.9427 112.622 63.125 113.102 63.125C114.039 63.125 114.518 62.4036 114.539 60.9609V60.6953C114.539 59.1797 114.055 58.4219 113.086 58.4219C112.206 58.4219 111.729 59.0755 111.656 60.3828L111.648 60.8594ZM123.445 58.9297L122.578 58.8672C121.75 58.8672 121.219 59.1276 120.984 59.6484V65H118.352V56.5469H120.82L120.906 57.6328C121.349 56.8047 121.966 56.3906 122.758 56.3906C123.039 56.3906 123.284 56.4219 123.492 56.4844L123.445 58.9297ZM128.328 65.1562C127.031 65.1562 125.982 64.7708 125.18 64C124.378 63.224 123.977 62.2161 123.977 60.9766V60.7578C123.977 59.8932 124.135 59.1302 124.453 58.4688C124.776 57.8073 125.245 57.2969 125.859 56.9375C126.474 56.5729 127.203 56.3906 128.047 56.3906C129.234 56.3906 130.172 56.7604 130.859 57.5C131.547 58.2344 131.891 59.2604 131.891 60.5781V61.6016H126.656C126.75 62.0755 126.956 62.4479 127.273 62.7188C127.591 62.9896 128.003 63.125 128.508 63.125C129.341 63.125 129.992 62.8333 130.461 62.25L131.664 63.6719C131.336 64.125 130.87 64.487 130.266 64.7578C129.667 65.0234 129.021 65.1562 128.328 65.1562ZM128.031 58.4219C127.26 58.4219 126.802 58.9323 126.656 59.9531H129.312V59.75C129.323 59.3281 129.216 59.0026 128.992 58.7734C128.768 58.5391 128.448 58.4219 128.031 58.4219ZM146.562 65H143.836L139.805 57.9219V65H137.062V53.625H139.805L143.828 60.7031V53.625H146.562V65ZM147.844 60.6953C147.844 59.8516 148.008 59.1016 148.336 58.4453C148.664 57.7839 149.135 57.276 149.75 56.9219C150.365 56.5677 151.086 56.3906 151.914 56.3906C153.18 56.3906 154.177 56.7839 154.906 57.5703C155.635 58.3516 156 59.4167 156 60.7656V60.8594C156 62.1771 155.633 63.224 154.898 64C154.169 64.7708 153.18 65.1562 151.93 65.1562C150.727 65.1562 149.76 64.7969 149.031 64.0781C148.302 63.3542 147.909 62.375 147.852 61.1406L147.844 60.6953ZM150.477 60.8594C150.477 61.6406 150.599 62.2135 150.844 62.5781C151.089 62.9427 151.451 63.125 151.93 63.125C152.867 63.125 153.346 62.4036 153.367 60.9609V60.6953C153.367 59.1797 152.883 58.4219 151.914 58.4219C151.034 58.4219 150.557 59.0755 150.484 60.3828L150.477 60.8594ZM164.461 61.5312L165.312 56.5469H167.836L165.844 65H163.617L162.219 59.9844L160.812 65H158.586L156.594 56.5469H159.117L159.953 61.6484L161.297 56.5469H163.133L164.461 61.5312ZM171.398 61.3984H169.266L168.93 53.625H171.734L171.398 61.3984ZM168.852 63.8203C168.852 63.4349 168.99 63.1198 169.266 62.875C169.547 62.625 169.896 62.5 170.312 62.5C170.729 62.5 171.076 62.625 171.352 62.875C171.633 63.1198 171.773 63.4349 171.773 63.8203C171.773 64.2057 171.633 64.5234 171.352 64.7734C171.076 65.0182 170.729 65.1406 170.312 65.1406C169.896 65.1406 169.547 65.0182 169.266 64.7734C168.99 64.5234 168.852 64.2057 168.852 63.8203Z" fill="white"/>
<defs>
<filter id="filter0_f_4_38" x="0" y="0" width="250" height="143" filterUnits="userSpaceOnUse" color-interpolation-filters="sRGB">
<feFlood flood-opacity="0" result="BackgroundImageFix"/>
<feBlend mode="normal" in="SourceGraphic" in2="BackgroundImageFix" result="shape"/>
<feGaussianBlur stdDeviation="25" result="effect1_foregroundBlur_4_38"/>
</filter>
<linearGradient id="paint0_linear_4_38" x1="125" y1="50" x2="125" y2="93" gradientUnits="userSpaceOnUse">
<stop stop-color="#FF5151" stop-opacity="0.5"/>
<stop offset="1" stop-color="#FF5E3A"/>
</linearGradient>
<linearGradient id="paint1_linear_4_38" x1="125" y1="30" x2="125" y2="90" gradientUnits="userSpaceOnUse">
<stop stop-color="#FF5151" stop-opacity="0.5"/>
<stop offset="1" stop-color="#FF5E3A"/>
</linearGradient>
</defs>
</svg>
