<svg width="477" height="209" viewBox="0 0 477 209" fill="none" xmlns="http://www.w3.org/2000/svg">
<path d="M67.9102 54.2676L57.2783 71.8574C57.167 70.4473 56.9072 68.833 56.499 67.0146C56.0908 65.1592 55.4043 63.415 54.4395 61.7822C53.5117 60.1494 52.2129 58.7764 50.543 57.6631C48.9102 56.5127 46.8135 55.9375 44.2529 55.9375C41.6182 55.9375 39.5029 56.457 37.9072 57.4961C36.3115 58.5352 35.0869 60.0938 34.2334 62.1719C33.3799 64.25 32.8047 66.8291 32.5078 69.9092C32.2109 72.9893 32.0625 76.5703 32.0625 80.6523H51.5449V88.1113H32.0625V145H13.1924V88.1113H1.50293V80.6523H13.1924C13.1924 74.752 13.8232 69.6865 15.085 65.4561C16.3467 61.2256 18.2578 57.7559 20.8184 55.0469C23.3789 52.3008 26.5889 50.2969 30.4482 49.0352C34.3447 47.7363 38.8906 47.0869 44.0859 47.0869C47.2031 47.0869 49.9863 47.3096 52.4355 47.7549C54.9219 48.1631 57.1113 48.7197 59.0039 49.4248C60.9336 50.0928 62.6221 50.8535 64.0693 51.707C65.5166 52.5605 66.7969 53.4141 67.9102 54.2676ZM123.574 145H104.76V137.318C102.533 140.361 99.8428 142.625 96.6885 144.109C93.5713 145.557 90.1387 146.28 86.3906 146.28C81.4922 146.28 77.1133 145.408 73.2539 143.664C69.3945 141.92 66.1289 139.545 63.457 136.539C60.7852 133.496 58.7441 129.934 57.334 125.852C55.9238 121.77 55.2188 117.391 55.2188 112.715C55.2188 108.039 55.9238 103.66 57.334 99.5781C58.7441 95.4961 60.7852 91.9521 63.457 88.9463C66.1289 85.9033 69.3945 83.5098 73.2539 81.7656C77.1133 80.0215 81.4922 79.1494 86.3906 79.1494C88.877 79.1494 91.2334 79.5205 93.46 80.2627C95.7236 81.0049 97.7832 82.0625 99.6387 83.4355C101.531 84.7715 103.183 86.4043 104.593 88.334C106.04 90.2266 107.172 92.3418 107.988 94.6797L116.338 80.708H123.574V145ZM104.648 112.715C104.648 111.045 104.556 109.282 104.37 107.427C104.222 105.571 103.943 103.734 103.535 101.916C103.127 100.098 102.552 98.3721 101.81 96.7393C101.104 95.0693 100.177 93.6035 99.0264 92.3418C97.9131 91.043 96.5586 90.0225 94.9629 89.2803C93.3672 88.5381 91.5117 88.167 89.3965 88.167C87.2812 88.167 85.4443 88.5566 83.8857 89.3359C82.3271 90.0781 80.9912 91.0986 79.8779 92.3975C78.7646 93.6592 77.8369 95.125 77.0947 96.7949C76.3896 98.4648 75.833 100.209 75.4248 102.027C75.0166 103.846 74.7197 105.683 74.5342 107.538C74.3857 109.356 74.3115 111.082 74.3115 112.715C74.3115 114.348 74.3857 116.092 74.5342 117.947C74.7197 119.803 75.0166 121.64 75.4248 123.458C75.833 125.276 76.3896 127.021 77.0947 128.69C77.8369 130.36 78.7646 131.845 79.8779 133.144C80.9912 134.405 82.3271 135.426 83.8857 136.205C85.4443 136.947 87.2812 137.318 89.3965 137.318C91.3262 137.318 93.0332 136.929 94.5176 136.149C96.0391 135.333 97.3564 134.257 98.4697 132.921C99.6201 131.585 100.585 130.063 101.364 128.356C102.144 126.649 102.774 124.887 103.257 123.068C103.739 121.25 104.092 119.45 104.314 117.669C104.537 115.851 104.648 114.199 104.648 112.715ZM194.657 124.46C194.657 127.28 194.249 129.785 193.433 131.975C192.616 134.164 191.503 136.075 190.093 137.708C188.683 139.304 187.013 140.658 185.083 141.771C183.153 142.848 181.075 143.72 178.849 144.388C176.659 145.056 174.358 145.538 171.946 145.835C169.534 146.132 167.141 146.28 164.766 146.28C161.574 146.28 158.754 146.076 156.305 145.668C153.855 145.26 151.518 144.61 149.291 143.72C147.064 142.792 144.838 141.604 142.611 140.157C140.422 138.71 137.973 136.947 135.264 134.869L146.229 125.907C147.231 127.8 148.549 129.525 150.182 131.084C151.852 132.605 153.577 133.923 155.358 135.036C157.14 136.149 158.865 137.003 160.535 137.597C162.205 138.19 163.56 138.487 164.599 138.487C165.452 138.487 166.417 138.469 167.493 138.432C168.569 138.357 169.664 138.246 170.777 138.098C171.891 137.912 172.985 137.652 174.062 137.318C175.138 136.984 176.084 136.539 176.9 135.982C177.754 135.389 178.422 134.665 178.904 133.812C179.424 132.921 179.684 131.863 179.684 130.639C179.684 129.377 179.35 128.282 178.682 127.354C178.051 126.39 177.216 125.555 176.177 124.85C175.138 124.145 173.95 123.551 172.614 123.068C171.278 122.586 169.924 122.159 168.551 121.788C167.215 121.417 165.916 121.102 164.654 120.842C163.393 120.545 162.298 120.267 161.37 120.007C159.663 119.524 157.863 119.042 155.971 118.56C154.078 118.04 152.204 117.465 150.349 116.834C148.493 116.166 146.712 115.387 145.005 114.496C143.335 113.605 141.851 112.548 140.552 111.323C139.29 110.062 138.27 108.596 137.49 106.926C136.748 105.219 136.377 103.233 136.377 100.97C136.377 96.8135 137.193 93.3438 138.826 90.5605C140.496 87.7402 142.686 85.4951 145.395 83.8252C148.104 82.1182 151.184 80.9121 154.635 80.207C158.086 79.502 161.593 79.1494 165.155 79.1494C167.604 79.1494 170.184 79.4092 172.893 79.9287C175.602 80.4111 178.236 81.1533 180.797 82.1553C183.357 83.1201 185.751 84.3076 187.978 85.7178C190.204 87.1279 192.06 88.7422 193.544 90.5605L182.578 99.5781C181.762 97.3516 180.686 95.4404 179.35 93.8447C178.051 92.249 176.622 90.9502 175.063 89.9482C173.542 88.9092 171.965 88.1484 170.332 87.666C168.736 87.1836 167.252 86.9424 165.879 86.9424C164.543 86.9424 163.04 86.998 161.37 87.1094C159.7 87.2207 158.123 87.5361 156.639 88.0557C155.191 88.5752 153.948 89.373 152.909 90.4492C151.907 91.4883 151.406 92.9355 151.406 94.791C151.406 96.127 151.703 97.2773 152.297 98.2422C152.928 99.1699 153.744 99.9863 154.746 100.691C155.748 101.359 156.88 101.935 158.142 102.417C159.44 102.862 160.758 103.271 162.094 103.642C163.43 103.976 164.729 104.272 165.99 104.532C167.252 104.792 168.384 105.07 169.386 105.367C171.093 105.85 172.893 106.351 174.785 106.87C176.715 107.353 178.607 107.928 180.463 108.596C182.318 109.227 184.1 109.987 185.807 110.878C187.551 111.731 189.072 112.789 190.371 114.051C191.67 115.312 192.709 116.797 193.488 118.504C194.268 120.174 194.657 122.159 194.657 124.46ZM272.309 108.15C272.309 112.492 271.771 117.02 270.694 121.732C269.655 126.445 268.189 131.065 266.297 135.593C264.404 140.12 262.141 144.369 259.506 148.34C256.871 152.348 253.977 155.799 250.822 158.693L243.753 154.853C244.755 152.997 245.701 150.919 246.592 148.618C247.482 146.317 248.28 143.887 248.985 141.326C249.728 138.729 250.377 136.057 250.934 133.311C251.527 130.564 252.01 127.855 252.381 125.184C252.789 122.475 253.086 119.858 253.271 117.335C253.494 114.774 253.605 112.399 253.605 110.21C253.605 108.763 253.55 107.223 253.438 105.59C253.327 103.92 253.086 102.269 252.715 100.636C252.381 98.9658 251.917 97.3701 251.323 95.8486C250.729 94.3271 249.932 92.9912 248.93 91.8408C247.965 90.6904 246.777 89.7627 245.367 89.0576C243.994 88.3525 242.361 88 240.469 88C238.613 88 236.962 88.4268 235.515 89.2803C234.067 90.0967 232.787 91.1914 231.674 92.5645C230.561 93.9004 229.596 95.4404 228.779 97.1846C228 98.9287 227.351 100.729 226.831 102.584C226.349 104.402 225.996 106.202 225.773 107.983C225.551 109.765 225.439 111.36 225.439 112.771V145H206.569V57.0508H225.384V90.1709C227.796 86.6455 230.746 83.9365 234.234 82.0439C237.76 80.1143 241.656 79.1494 245.924 79.1494C250.377 79.1494 254.255 79.873 257.558 81.3203C260.86 82.7676 263.606 84.79 265.796 87.3877C267.985 89.9482 269.618 93.0098 270.694 96.5723C271.771 100.098 272.309 103.957 272.309 108.15ZM304.482 65.1777C304.482 66.5879 304.204 67.9238 303.647 69.1855C303.128 70.4473 302.404 71.542 301.477 72.4697C300.549 73.3975 299.454 74.1396 298.192 74.6963C296.931 75.2158 295.595 75.4756 294.185 75.4756C292.774 75.4756 291.438 75.2158 290.177 74.6963C288.952 74.1396 287.876 73.3975 286.948 72.4697C286.021 71.542 285.278 70.4473 284.722 69.1855C284.202 67.9238 283.942 66.5879 283.942 65.1777C283.942 63.7676 284.202 62.4502 284.722 61.2256C285.278 59.9639 286.021 58.8691 286.948 57.9414C287.876 57.0137 288.952 56.29 290.177 55.7705C291.438 55.2139 292.774 54.9355 294.185 54.9355C295.595 54.9355 296.931 55.2139 298.192 55.7705C299.454 56.29 300.549 57.0137 301.477 57.9414C302.404 58.8691 303.128 59.9639 303.647 61.2256C304.204 62.4502 304.482 63.7676 304.482 65.1777ZM303.647 145H284.777V80.7637H303.647V145ZM387.366 112.715C387.366 116.055 386.921 119.19 386.03 122.122C385.14 125.054 383.896 127.763 382.301 130.249C380.742 132.735 378.85 134.98 376.623 136.984C374.396 138.951 371.947 140.621 369.275 141.994C366.641 143.367 363.802 144.425 360.759 145.167C357.753 145.909 354.654 146.28 351.463 146.28C348.271 146.28 345.173 145.909 342.167 145.167C339.161 144.425 336.322 143.367 333.65 141.994C331.016 140.621 328.585 138.951 326.358 136.984C324.132 134.98 322.221 132.735 320.625 130.249C319.066 127.763 317.842 125.054 316.951 122.122C316.061 119.153 315.615 116.018 315.615 112.715C315.615 109.412 316.061 106.295 316.951 103.363C317.842 100.395 319.066 97.667 320.625 95.1807C322.221 92.6943 324.132 90.4678 326.358 88.501C328.585 86.4971 331.016 84.8086 333.65 83.4355C336.322 82.0625 339.161 81.0049 342.167 80.2627C345.173 79.5205 348.271 79.1494 351.463 79.1494C354.654 79.1494 357.753 79.5205 360.759 80.2627C363.802 81.0049 366.641 82.0625 369.275 83.4355C371.947 84.8086 374.396 86.4971 376.623 88.501C378.85 90.4678 380.742 92.6943 382.301 95.1807C383.896 97.667 385.14 100.395 386.03 103.363C386.921 106.295 387.366 109.412 387.366 112.715ZM368.218 112.715C368.218 110.934 368.106 109.06 367.884 107.093C367.698 105.089 367.364 103.141 366.882 101.248C366.399 99.3184 365.731 97.4814 364.878 95.7373C364.062 93.9561 363.041 92.416 361.816 91.1172C360.592 89.7812 359.126 88.7236 357.419 87.9443C355.712 87.1279 353.727 86.7197 351.463 86.7197C349.311 86.7197 347.399 87.1279 345.729 87.9443C344.06 88.7607 342.594 89.8555 341.332 91.2285C340.107 92.5645 339.068 94.123 338.215 95.9043C337.398 97.6855 336.73 99.541 336.211 101.471C335.691 103.363 335.32 105.293 335.098 107.26C334.875 109.189 334.764 111.008 334.764 112.715C334.764 114.422 334.875 116.259 335.098 118.226C335.32 120.155 335.691 122.085 336.211 124.015C336.73 125.944 337.398 127.8 338.215 129.581C339.068 131.325 340.107 132.884 341.332 134.257C342.594 135.593 344.06 136.669 345.729 137.485C347.399 138.302 349.311 138.71 351.463 138.71C353.689 138.71 355.656 138.32 357.363 137.541C359.07 136.725 360.536 135.648 361.761 134.312C363.022 132.977 364.062 131.437 364.878 129.692C365.694 127.948 366.344 126.111 366.826 124.182C367.346 122.252 367.698 120.304 367.884 118.337C368.106 116.37 368.218 114.496 368.218 112.715ZM465.018 108.15C465.018 112.492 464.479 117.02 463.403 121.732C462.364 126.445 460.898 131.065 459.006 135.593C457.113 140.12 454.85 144.369 452.215 148.34C449.58 152.348 446.686 155.799 443.531 158.693L436.462 154.853C437.464 152.997 438.41 150.919 439.301 148.618C440.191 146.317 440.989 143.887 441.694 141.326C442.437 138.729 443.086 136.057 443.643 133.311C444.236 130.564 444.719 127.855 445.09 125.184C445.498 122.475 445.795 119.858 445.98 117.335C446.203 114.774 446.314 112.399 446.314 110.21C446.314 108.763 446.259 107.223 446.147 105.59C446.036 103.92 445.795 102.269 445.424 100.636C445.09 98.9658 444.626 97.3701 444.032 95.8486C443.438 94.3271 442.641 92.9912 441.639 91.8408C440.674 90.6904 439.486 89.7627 438.076 89.0576C436.703 88.3525 435.07 88 433.178 88C431.322 88 429.671 88.4268 428.224 89.2803C426.776 90.0967 425.496 91.1914 424.383 92.5645C423.27 93.9004 422.305 95.4404 421.488 97.1846C420.709 98.9287 420.06 100.729 419.54 102.584C419.058 104.402 418.705 106.202 418.482 107.983C418.26 109.765 418.148 111.36 418.148 112.771V145H399.278V80.708H406.515L415.143 95.6816C416.182 93.1953 417.48 90.9316 419.039 88.8906C420.598 86.8496 422.36 85.1055 424.327 83.6582C426.294 82.2109 428.465 81.0977 430.84 80.3184C433.252 79.5391 435.85 79.1494 438.633 79.1494C443.086 79.1494 446.964 79.873 450.267 81.3203C453.569 82.7676 456.315 84.79 458.505 87.3877C460.694 89.9482 462.327 93.0098 463.403 96.5723C464.479 100.098 465.018 103.957 465.018 108.15Z" fill="black"/>
<path d="M2.62 17V5.192H4.114V15.722H9.28V17H2.62ZM11.9859 6.452C11.6979 6.452 11.4519 6.362 11.2479 6.182C11.0559 6.002 10.9599 5.774 10.9599 5.498C10.9599 5.21 11.0559 4.982 11.2479 4.814C11.4519 4.634 11.6979 4.544 11.9859 4.544C12.2739 4.544 12.5139 4.634 12.7059 4.814C12.9099 4.982 13.0119 5.21 13.0119 5.498C13.0119 5.774 12.9099 6.002 12.7059 6.182C12.5139 6.362 12.2739 6.452 11.9859 6.452ZM11.2299 17V8.252H12.7059V17H11.2299ZM15.6596 17V8.252H16.8836L17.0096 9.512H17.0636C17.4476 9.104 17.8676 8.756 18.3236 8.468C18.7796 8.18 19.2656 8.036 19.7816 8.036C20.4416 8.036 20.9636 8.186 21.3476 8.486C21.7316 8.786 22.0136 9.194 22.1936 9.71C22.6496 9.218 23.1116 8.816 23.5796 8.504C24.0476 8.192 24.5456 8.036 25.0736 8.036C26.8496 8.036 27.7376 9.176 27.7376 11.456V17H26.2616V11.654C26.2616 10.094 25.7216 9.314 24.6416 9.314C23.9816 9.314 23.2496 9.764 22.4456 10.664V17H20.9696V11.654C20.9696 10.094 20.4236 9.314 19.3316 9.314C18.6836 9.314 17.9516 9.764 17.1356 10.664V17H15.6596ZM31.3394 6.452C31.0514 6.452 30.8054 6.362 30.6014 6.182C30.4094 6.002 30.3134 5.774 30.3134 5.498C30.3134 5.21 30.4094 4.982 30.6014 4.814C30.8054 4.634 31.0514 4.544 31.3394 4.544C31.6274 4.544 31.8674 4.634 32.0594 4.814C32.2634 4.982 32.3654 5.21 32.3654 5.498C32.3654 5.774 32.2634 6.002 32.0594 6.182C31.8674 6.362 31.6274 6.452 31.3394 6.452ZM30.5834 17V8.252H32.0594V17H30.5834ZM37.7671 17.216C36.8311 17.216 36.1771 16.946 35.8051 16.406C35.4451 15.866 35.2651 15.164 35.2651 14.3V9.458H33.9691V8.342L35.3371 8.252L35.5171 5.804H36.7591V8.252H39.1171V9.458H36.7591V14.318C36.7591 14.858 36.8551 15.278 37.0471 15.578C37.2511 15.866 37.6051 16.01 38.1091 16.01C38.2651 16.01 38.4331 15.986 38.6131 15.938C38.7931 15.878 38.9551 15.824 39.0991 15.776L39.3871 16.892C39.1471 16.976 38.8831 17.048 38.5951 17.108C38.3191 17.18 38.0431 17.216 37.7671 17.216ZM44.395 17.216C43.231 17.216 42.241 16.814 41.425 16.01C40.609 15.194 40.201 14.072 40.201 12.644C40.201 11.684 40.387 10.862 40.759 10.178C41.143 9.494 41.629 8.966 42.217 8.594C42.817 8.222 43.453 8.036 44.125 8.036C45.241 8.036 46.099 8.408 46.699 9.152C47.311 9.896 47.617 10.892 47.617 12.14C47.617 12.488 47.599 12.77 47.563 12.986H41.659C41.719 13.91 42.007 14.648 42.523 15.2C43.051 15.752 43.735 16.028 44.575 16.028C44.995 16.028 45.379 15.968 45.727 15.848C46.087 15.716 46.429 15.548 46.753 15.344L47.275 16.316C46.903 16.556 46.477 16.766 45.997 16.946C45.517 17.126 44.983 17.216 44.395 17.216ZM41.641 11.924H46.321C46.321 10.112 45.601 9.206 44.161 9.206C43.549 9.206 42.997 9.446 42.505 9.926C42.025 10.394 41.737 11.06 41.641 11.924ZM53.0907 15.974C53.8587 15.974 54.6027 15.572 55.3227 14.768V10.196C54.9507 9.86 54.5907 9.626 54.2427 9.494C53.9067 9.35 53.5587 9.278 53.1987 9.278C52.5027 9.278 51.9087 9.59 51.4167 10.214C50.9247 10.826 50.6787 11.63 50.6787 12.626C50.6787 13.67 50.8887 14.492 51.3087 15.092C51.7287 15.68 52.3227 15.974 53.0907 15.974ZM52.7667 17.216C51.6627 17.216 50.7807 16.82 50.1207 16.028C49.4727 15.236 49.1487 14.108 49.1487 12.644C49.1487 11.228 49.5327 10.106 50.3007 9.278C51.0687 8.45 51.9507 8.036 52.9467 8.036C53.4507 8.036 53.8887 8.126 54.2607 8.306C54.6327 8.486 55.0107 8.732 55.3947 9.044L55.3227 7.55V4.184H56.8167V17H55.5927L55.4667 15.974H55.4127C55.0647 16.31 54.6627 16.604 54.2067 16.856C53.7627 17.096 53.2827 17.216 52.7667 17.216ZM65.9586 17V6.452H62.3946V5.192H71.0346V6.452H67.4706V17H65.9586ZM73.773 6.452C73.485 6.452 73.239 6.362 73.035 6.182C72.843 6.002 72.747 5.774 72.747 5.498C72.747 5.21 72.843 4.982 73.035 4.814C73.239 4.634 73.485 4.544 73.773 4.544C74.061 4.544 74.301 4.634 74.493 4.814C74.697 4.982 74.799 5.21 74.799 5.498C74.799 5.774 74.697 6.002 74.493 6.182C74.301 6.362 74.061 6.452 73.773 6.452ZM73.017 17V8.252H74.493V17H73.017ZM77.4467 17V8.252H78.6707L78.7967 9.512H78.8507C79.2347 9.104 79.6547 8.756 80.1107 8.468C80.5667 8.18 81.0527 8.036 81.5687 8.036C82.2287 8.036 82.7507 8.186 83.1347 8.486C83.5187 8.786 83.8007 9.194 83.9807 9.71C84.4367 9.218 84.8987 8.816 85.3667 8.504C85.8347 8.192 86.3327 8.036 86.8607 8.036C88.6367 8.036 89.5247 9.176 89.5247 11.456V17H88.0487V11.654C88.0487 10.094 87.5087 9.314 86.4287 9.314C85.7687 9.314 85.0367 9.764 84.2327 10.664V17H82.7567V11.654C82.7567 10.094 82.2107 9.314 81.1187 9.314C80.4707 9.314 79.7387 9.764 78.9227 10.664V17H77.4467ZM95.9165 17.216C94.7525 17.216 93.7625 16.814 92.9465 16.01C92.1305 15.194 91.7225 14.072 91.7225 12.644C91.7225 11.684 91.9085 10.862 92.2805 10.178C92.6645 9.494 93.1505 8.966 93.7385 8.594C94.3385 8.222 94.9745 8.036 95.6465 8.036C96.7625 8.036 97.6205 8.408 98.2205 9.152C98.8325 9.896 99.1385 10.892 99.1385 12.14C99.1385 12.488 99.1205 12.77 99.0845 12.986H93.1805C93.2405 13.91 93.5285 14.648 94.0445 15.2C94.5725 15.752 95.2565 16.028 96.0965 16.028C96.5165 16.028 96.9005 15.968 97.2485 15.848C97.6085 15.716 97.9505 15.548 98.2745 15.344L98.7965 16.316C98.4245 16.556 97.9985 16.766 97.5185 16.946C97.0385 17.126 96.5045 17.216 95.9165 17.216ZM93.1625 11.924H97.8425C97.8425 10.112 97.1225 9.206 95.6825 9.206C95.0705 9.206 94.5185 9.446 94.0265 9.926C93.5465 10.394 93.2585 11.06 93.1625 11.924ZM109.404 17.216C107.916 17.216 106.704 16.664 105.768 15.56C104.832 14.444 104.364 12.938 104.364 11.042C104.364 9.158 104.832 7.676 105.768 6.596C106.704 5.516 107.916 4.976 109.404 4.976C110.892 4.976 112.104 5.516 113.04 6.596C113.988 7.676 114.462 9.158 114.462 11.042C114.462 12.938 113.988 14.444 113.04 15.56C112.104 16.664 110.892 17.216 109.404 17.216ZM109.404 15.902C110.46 15.902 111.306 15.464 111.942 14.588C112.578 13.7 112.896 12.518 112.896 11.042C112.896 9.578 112.578 8.42 111.942 7.568C111.306 6.716 110.46 6.29 109.404 6.29C108.348 6.29 107.502 6.716 106.866 7.568C106.23 8.42 105.912 9.578 105.912 11.042C105.912 12.518 106.23 13.7 106.866 14.588C107.502 15.464 108.348 15.902 109.404 15.902ZM116.857 17V8.252H118.081L118.207 9.512H118.261C118.669 9.104 119.107 8.756 119.575 8.468C120.055 8.18 120.595 8.036 121.195 8.036C122.971 8.036 123.859 9.176 123.859 11.456V17H122.383V11.654C122.383 10.838 122.251 10.244 121.987 9.872C121.723 9.5 121.303 9.314 120.727 9.314C120.283 9.314 119.881 9.428 119.521 9.656C119.173 9.884 118.777 10.22 118.333 10.664V17H116.857ZM128.267 17.216C127.223 17.216 126.701 16.556 126.701 15.236V4.184H128.177V15.344C128.177 15.776 128.315 15.992 128.591 15.992C128.699 15.992 128.807 15.98 128.915 15.956L129.113 17.072C128.897 17.168 128.615 17.216 128.267 17.216ZM131.433 20.762C131.073 20.762 130.731 20.702 130.406 20.582L130.695 19.412C130.779 19.436 130.881 19.46 131 19.484C131.133 19.52 131.253 19.538 131.361 19.538C131.853 19.538 132.261 19.358 132.585 18.998C132.909 18.65 133.161 18.206 133.341 17.666L133.539 17.018L130.029 8.252H131.559L133.341 13.094C133.473 13.466 133.611 13.868 133.755 14.3C133.911 14.732 134.055 15.152 134.187 15.56H134.259C134.391 15.164 134.517 14.75 134.637 14.318C134.757 13.886 134.877 13.478 134.997 13.094L136.563 8.252H138.003L134.709 17.72C134.397 18.584 133.995 19.304 133.503 19.88C133.011 20.468 132.321 20.762 131.433 20.762ZM143.438 17V5.192H150.242V6.452H144.932V10.448H149.432V11.708H144.932V17H143.438ZM155.345 17.216C154.277 17.216 153.335 16.82 152.519 16.028C151.703 15.224 151.295 14.096 151.295 12.644C151.295 11.18 151.703 10.046 152.519 9.242C153.335 8.438 154.277 8.036 155.345 8.036C156.413 8.036 157.355 8.438 158.171 9.242C158.987 10.046 159.395 11.18 159.395 12.644C159.395 14.096 158.987 15.224 158.171 16.028C157.355 16.82 156.413 17.216 155.345 17.216ZM155.345 15.992C156.101 15.992 156.707 15.686 157.163 15.074C157.631 14.45 157.865 13.64 157.865 12.644C157.865 11.636 157.631 10.82 157.163 10.196C156.707 9.572 156.101 9.26 155.345 9.26C154.601 9.26 153.995 9.572 153.527 10.196C153.059 10.82 152.825 11.636 152.825 12.644C152.825 13.64 153.059 14.45 153.527 15.074C153.995 15.686 154.601 15.992 155.345 15.992ZM161.699 17V8.252H162.923L163.049 9.836H163.103C163.403 9.284 163.769 8.846 164.201 8.522C164.633 8.198 165.095 8.036 165.587 8.036C165.935 8.036 166.247 8.096 166.523 8.216L166.235 9.512C166.091 9.464 165.959 9.428 165.839 9.404C165.719 9.38 165.569 9.368 165.389 9.368C165.017 9.368 164.627 9.518 164.219 9.818C163.823 10.118 163.475 10.64 163.175 11.384V17H161.699ZM172.982 17L170.48 5.192H172.028L173.27 11.618C173.378 12.254 173.492 12.89 173.612 13.526C173.732 14.162 173.846 14.798 173.954 15.434H174.026C174.158 14.798 174.296 14.162 174.44 13.526C174.584 12.89 174.722 12.254 174.854 11.618L176.492 5.192H177.86L179.498 11.618C179.642 12.242 179.786 12.878 179.93 13.526C180.074 14.162 180.218 14.798 180.362 15.434H180.434C180.542 14.798 180.65 14.162 180.758 13.526C180.866 12.89 180.98 12.254 181.1 11.618L182.342 5.192H183.782L181.334 17H179.534L177.752 9.89C177.548 9.038 177.356 8.144 177.176 7.208H177.104C177.02 7.664 176.924 8.114 176.816 8.558C176.708 8.99 176.606 9.434 176.51 9.89L174.764 17H172.982ZM186.449 6.452C186.161 6.452 185.915 6.362 185.711 6.182C185.519 6.002 185.423 5.774 185.423 5.498C185.423 5.21 185.519 4.982 185.711 4.814C185.915 4.634 186.161 4.544 186.449 4.544C186.737 4.544 186.977 4.634 187.169 4.814C187.373 4.982 187.475 5.21 187.475 5.498C187.475 5.774 187.373 6.002 187.169 6.182C186.977 6.362 186.737 6.452 186.449 6.452ZM185.693 17V8.252H187.169V17H185.693ZM190.122 17V8.252H191.346L191.472 9.512H191.526C191.934 9.104 192.372 8.756 192.84 8.468C193.32 8.18 193.86 8.036 194.46 8.036C196.236 8.036 197.124 9.176 197.124 11.456V17H195.648V11.654C195.648 10.838 195.516 10.244 195.252 9.872C194.988 9.5 194.568 9.314 193.992 9.314C193.548 9.314 193.146 9.428 192.786 9.656C192.438 9.884 192.042 10.22 191.598 10.664V17H190.122ZM202.72 17.216C201.784 17.216 201.13 16.946 200.758 16.406C200.398 15.866 200.218 15.164 200.218 14.3V9.458H198.922V8.342L200.29 8.252L200.47 5.804H201.712V8.252H204.07V9.458H201.712V14.318C201.712 14.858 201.808 15.278 202 15.578C202.204 15.866 202.558 16.01 203.062 16.01C203.218 16.01 203.386 15.986 203.566 15.938C203.746 15.878 203.908 15.824 204.052 15.776L204.34 16.892C204.1 16.976 203.836 17.048 203.548 17.108C203.272 17.18 202.996 17.216 202.72 17.216ZM209.348 17.216C208.184 17.216 207.194 16.814 206.378 16.01C205.562 15.194 205.154 14.072 205.154 12.644C205.154 11.684 205.34 10.862 205.712 10.178C206.096 9.494 206.582 8.966 207.17 8.594C207.77 8.222 208.406 8.036 209.078 8.036C210.194 8.036 211.052 8.408 211.652 9.152C212.264 9.896 212.57 10.892 212.57 12.14C212.57 12.488 212.552 12.77 212.516 12.986H206.612C206.672 13.91 206.96 14.648 207.476 15.2C208.004 15.752 208.688 16.028 209.528 16.028C209.948 16.028 210.332 15.968 210.68 15.848C211.04 15.716 211.382 15.548 211.706 15.344L212.228 16.316C211.856 16.556 211.43 16.766 210.95 16.946C210.47 17.126 209.936 17.216 209.348 17.216ZM206.594 11.924H211.274C211.274 10.112 210.554 9.206 209.114 9.206C208.502 9.206 207.95 9.446 207.458 9.926C206.978 10.394 206.69 11.06 206.594 11.924ZM214.732 17V8.252H215.956L216.082 9.836H216.136C216.436 9.284 216.802 8.846 217.234 8.522C217.666 8.198 218.128 8.036 218.62 8.036C218.968 8.036 219.28 8.096 219.556 8.216L219.268 9.512C219.124 9.464 218.992 9.428 218.872 9.404C218.752 9.38 218.602 9.368 218.422 9.368C218.05 9.368 217.66 9.518 217.252 9.818C216.856 10.118 216.508 10.64 216.208 11.384V17H214.732Z" fill="black"/>
<path d="M3.16 201V185.256H5.152V199.296H12.04V201H3.16ZM20.0071 201.288C18.0231 201.288 16.4071 200.552 15.1591 199.08C13.9111 197.592 13.2871 195.584 13.2871 193.056C13.2871 190.544 13.9111 188.568 15.1591 187.128C16.4071 185.688 18.0231 184.968 20.0071 184.968C21.9911 184.968 23.6071 185.688 24.8551 187.128C26.1191 188.568 26.7511 190.544 26.7511 193.056C26.7511 195.584 26.1191 197.592 24.8551 199.08C23.6071 200.552 21.9911 201.288 20.0071 201.288ZM20.0071 199.536C21.4151 199.536 22.5431 198.952 23.3911 197.784C24.2391 196.6 24.6631 195.024 24.6631 193.056C24.6631 191.104 24.2391 189.56 23.3911 188.424C22.5431 187.288 21.4151 186.72 20.0071 186.72C18.5991 186.72 17.4711 187.288 16.6231 188.424C15.7751 189.56 15.3511 191.104 15.3511 193.056C15.3511 195.024 15.7751 196.6 16.6231 197.784C17.4711 198.952 18.5991 199.536 20.0071 199.536ZM35.9446 201.288C33.9606 201.288 32.3446 200.552 31.0966 199.08C29.8486 197.592 29.2246 195.584 29.2246 193.056C29.2246 190.544 29.8486 188.568 31.0966 187.128C32.3446 185.688 33.9606 184.968 35.9446 184.968C37.9286 184.968 39.5446 185.688 40.7926 187.128C42.0566 188.568 42.6886 190.544 42.6886 193.056C42.6886 195.584 42.0566 197.592 40.7926 199.08C39.5446 200.552 37.9286 201.288 35.9446 201.288ZM35.9446 199.536C37.3526 199.536 38.4806 198.952 39.3286 197.784C40.1766 196.6 40.6006 195.024 40.6006 193.056C40.6006 191.104 40.1766 189.56 39.3286 188.424C38.4806 187.288 37.3526 186.72 35.9446 186.72C34.5366 186.72 33.4086 187.288 32.5606 188.424C31.7126 189.56 31.2886 191.104 31.2886 193.056C31.2886 195.024 31.7126 196.6 32.5606 197.784C33.4086 198.952 34.5366 199.536 35.9446 199.536ZM46.0741 201V185.256H48.0661V193.152H48.1381L54.6901 185.256H56.9461L52.0261 191.256L57.7141 201H55.4821L50.7781 192.816L48.0661 196.008V201H46.0741ZM67.3212 201V194.904L62.5932 185.256H64.7292L66.7692 189.696C67.0252 190.272 67.2732 190.84 67.5132 191.4C67.7692 191.96 68.0252 192.536 68.2812 193.128H68.3772C68.6492 192.536 68.9212 191.96 69.1932 191.4C69.4652 190.84 69.7212 190.272 69.9612 189.696L71.9772 185.256H74.0652L69.3372 194.904V201H67.3212ZM81.6711 201.288C79.6871 201.288 78.0711 200.552 76.8231 199.08C75.5751 197.592 74.9511 195.584 74.9511 193.056C74.9511 190.544 75.5751 188.568 76.8231 187.128C78.0711 185.688 79.6871 184.968 81.6711 184.968C83.6551 184.968 85.2711 185.688 86.5191 187.128C87.7831 188.568 88.4151 190.544 88.4151 193.056C88.4151 195.584 87.7831 197.592 86.5191 199.08C85.2711 200.552 83.6551 201.288 81.6711 201.288ZM81.6711 199.536C83.0791 199.536 84.2071 198.952 85.0551 197.784C85.9031 196.6 86.3271 195.024 86.3271 193.056C86.3271 191.104 85.9031 189.56 85.0551 188.424C84.2071 187.288 83.0791 186.72 81.6711 186.72C80.2631 186.72 79.1351 187.288 78.2871 188.424C77.4391 189.56 77.0151 191.104 77.0151 193.056C77.0151 195.024 77.4391 196.6 78.2871 197.784C79.1351 198.952 80.2631 199.536 81.6711 199.536ZM97.3926 201.288C95.7766 201.288 94.4246 200.792 93.3366 199.8C92.2646 198.792 91.7286 197.024 91.7286 194.496V185.256H93.7206V194.544C93.7206 196.448 94.0726 197.76 94.7766 198.48C95.4806 199.184 96.3526 199.536 97.3926 199.536C98.4326 199.536 99.3126 199.184 100.033 198.48C100.753 197.76 101.113 196.448 101.113 194.544V185.256H103.033V194.496C103.033 197.024 102.497 198.792 101.425 199.8C100.353 200.792 99.0086 201.288 97.3926 201.288ZM109.261 192.72H111.901C114.445 192.72 115.717 191.704 115.717 189.672C115.717 188.648 115.389 187.928 114.733 187.512C114.077 187.08 113.133 186.864 111.901 186.864H109.261V192.72ZM109.261 201H107.269V185.256H112.189C113.805 185.256 115.125 185.584 116.149 186.24C117.189 186.896 117.709 188.04 117.709 189.672C117.709 190.904 117.381 191.888 116.725 192.624C116.085 193.36 115.229 193.864 114.157 194.136L118.165 201H115.909L112.117 194.352H109.261V201ZM125.738 201V185.256H130.418C132.018 185.256 133.314 185.552 134.306 186.144C135.314 186.736 135.818 187.72 135.818 189.096C135.818 189.88 135.618 190.592 135.218 191.232C134.818 191.856 134.25 192.288 133.514 192.528V192.624C134.458 192.8 135.226 193.2 135.818 193.824C136.426 194.448 136.73 195.304 136.73 196.392C136.73 197.944 136.17 199.104 135.05 199.872C133.946 200.624 132.514 201 130.754 201H125.738ZM127.73 191.952H130.058C131.402 191.952 132.37 191.72 132.962 191.256C133.554 190.792 133.85 190.16 133.85 189.36C133.85 188.448 133.538 187.8 132.914 187.416C132.29 187.032 131.37 186.84 130.154 186.84H127.73V191.952ZM127.73 199.416H130.466C131.826 199.416 132.882 199.168 133.634 198.672C134.386 198.16 134.762 197.376 134.762 196.32C134.762 195.344 134.386 194.632 133.634 194.184C132.898 193.72 131.842 193.488 130.466 193.488H127.73V199.416ZM139.848 201V185.256H148.92V186.936H141.84V191.88H147.816V193.584H141.84V199.296H149.16V201H139.848ZM156.872 201.288C155.768 201.288 154.744 201.08 153.8 200.664C152.856 200.232 152.04 199.664 151.352 198.96L152.552 197.568C153.112 198.16 153.768 198.64 154.52 199.008C155.288 199.36 156.08 199.536 156.896 199.536C157.936 199.536 158.744 199.304 159.32 198.84C159.896 198.36 160.184 197.736 160.184 196.968C160.184 196.168 159.936 195.592 159.44 195.24C158.944 194.872 158.32 194.52 157.568 194.184L155.312 193.2C154.56 192.896 153.84 192.432 153.152 191.808C152.464 191.184 152.12 190.296 152.12 189.144C152.12 187.944 152.584 186.952 153.512 186.168C154.456 185.368 155.64 184.968 157.064 184.968C157.992 184.968 158.856 185.152 159.656 185.52C160.472 185.872 161.16 186.336 161.72 186.912L160.64 188.208C160.16 187.744 159.624 187.384 159.032 187.128C158.456 186.856 157.8 186.72 157.064 186.72C156.184 186.72 155.472 186.928 154.928 187.344C154.4 187.76 154.136 188.32 154.136 189.024C154.136 189.776 154.416 190.336 154.976 190.704C155.536 191.072 156.128 191.384 156.752 191.64L158.984 192.6C159.896 193 160.664 193.512 161.288 194.136C161.912 194.744 162.224 195.632 162.224 196.8C162.224 198.048 161.744 199.112 160.784 199.992C159.84 200.856 158.536 201.288 156.872 201.288ZM168.119 201V186.936H163.367V185.256H174.887V186.936H170.135V201H168.119ZM188.335 201.288C186.351 201.288 184.735 200.552 183.487 199.08C182.239 197.592 181.615 195.584 181.615 193.056C181.615 190.544 182.239 188.568 183.487 187.128C184.735 185.688 186.351 184.968 188.335 184.968C190.319 184.968 191.935 185.688 193.183 187.128C194.447 188.568 195.079 190.544 195.079 193.056C195.079 195.584 194.447 197.592 193.183 199.08C191.935 200.552 190.319 201.288 188.335 201.288ZM188.335 199.536C189.743 199.536 190.871 198.952 191.719 197.784C192.567 196.6 192.991 195.024 192.991 193.056C192.991 191.104 192.567 189.56 191.719 188.424C190.871 187.288 189.743 186.72 188.335 186.72C186.927 186.72 185.799 187.288 184.951 188.424C184.103 189.56 183.679 191.104 183.679 193.056C183.679 195.024 184.103 196.6 184.951 197.784C185.799 198.952 186.927 199.536 188.335 199.536ZM198.465 201V185.256H200.529L206.217 195.144L207.921 198.408H208.017C207.969 197.608 207.913 196.784 207.849 195.936C207.801 195.072 207.777 194.224 207.777 193.392V185.256H209.673V201H207.609L201.897 191.088L200.193 187.848H200.097C200.161 188.648 200.217 189.464 200.265 190.296C200.329 191.112 200.361 191.936 200.361 192.768V201H198.465ZM221.352 201V194.904L216.624 185.256H218.76L220.8 189.696C221.056 190.272 221.304 190.84 221.544 191.4C221.8 191.96 222.056 192.536 222.312 193.128H222.408C222.68 192.536 222.952 191.96 223.224 191.4C223.496 190.84 223.752 190.272 223.992 189.696L226.008 185.256H228.096L223.368 194.904V201H221.352ZM235.702 201.288C233.718 201.288 232.102 200.552 230.854 199.08C229.606 197.592 228.982 195.584 228.982 193.056C228.982 190.544 229.606 188.568 230.854 187.128C232.102 185.688 233.718 184.968 235.702 184.968C237.686 184.968 239.302 185.688 240.55 187.128C241.814 188.568 242.446 190.544 242.446 193.056C242.446 195.584 241.814 197.592 240.55 199.08C239.302 200.552 237.686 201.288 235.702 201.288ZM235.702 199.536C237.11 199.536 238.238 198.952 239.086 197.784C239.934 196.6 240.358 195.024 240.358 193.056C240.358 191.104 239.934 189.56 239.086 188.424C238.238 187.288 237.11 186.72 235.702 186.72C234.294 186.72 233.166 187.288 232.318 188.424C231.47 189.56 231.046 191.104 231.046 193.056C231.046 195.024 231.47 196.6 232.318 197.784C233.166 198.952 234.294 199.536 235.702 199.536ZM251.424 201.288C249.808 201.288 248.456 200.792 247.368 199.8C246.296 198.792 245.76 197.024 245.76 194.496V185.256H247.752V194.544C247.752 196.448 248.104 197.76 248.808 198.48C249.512 199.184 250.384 199.536 251.424 199.536C252.464 199.536 253.344 199.184 254.064 198.48C254.784 197.76 255.144 196.448 255.144 194.544V185.256H257.064V194.496C257.064 197.024 256.528 198.792 255.456 199.8C254.384 200.792 253.04 201.288 251.424 201.288ZM263.293 192.72H265.933C268.477 192.72 269.749 191.704 269.749 189.672C269.749 188.648 269.421 187.928 268.765 187.512C268.109 187.08 267.165 186.864 265.933 186.864H263.293V192.72ZM263.293 201H261.301V185.256H266.221C267.837 185.256 269.157 185.584 270.181 186.24C271.221 186.896 271.741 188.04 271.741 189.672C271.741 190.904 271.413 191.888 270.757 192.624C270.117 193.36 269.261 193.864 268.189 194.136L272.197 201H269.941L266.149 194.352H263.293V201ZM279.769 201V185.256H284.449C286.049 185.256 287.345 185.552 288.337 186.144C289.345 186.736 289.849 187.72 289.849 189.096C289.849 189.88 289.649 190.592 289.249 191.232C288.849 191.856 288.281 192.288 287.545 192.528V192.624C288.489 192.8 289.257 193.2 289.849 193.824C290.457 194.448 290.761 195.304 290.761 196.392C290.761 197.944 290.201 199.104 289.081 199.872C287.977 200.624 286.545 201 284.785 201H279.769ZM281.761 191.952H284.089C285.433 191.952 286.401 191.72 286.993 191.256C287.585 190.792 287.881 190.16 287.881 189.36C287.881 188.448 287.569 187.8 286.945 187.416C286.321 187.032 285.401 186.84 284.185 186.84H281.761V191.952ZM281.761 199.416H284.497C285.857 199.416 286.913 199.168 287.665 198.672C288.417 198.16 288.793 197.376 288.793 196.32C288.793 195.344 288.417 194.632 287.665 194.184C286.929 193.72 285.873 193.488 284.497 193.488H281.761V199.416ZM293.879 201V185.256H302.951V186.936H295.871V191.88H301.847V193.584H295.871V199.296H303.191V201H293.879ZM310.903 201.288C309.799 201.288 308.775 201.08 307.831 200.664C306.887 200.232 306.071 199.664 305.383 198.96L306.583 197.568C307.143 198.16 307.799 198.64 308.551 199.008C309.319 199.36 310.111 199.536 310.927 199.536C311.967 199.536 312.775 199.304 313.351 198.84C313.927 198.36 314.215 197.736 314.215 196.968C314.215 196.168 313.967 195.592 313.471 195.24C312.975 194.872 312.351 194.52 311.599 194.184L309.343 193.2C308.591 192.896 307.871 192.432 307.183 191.808C306.495 191.184 306.151 190.296 306.151 189.144C306.151 187.944 306.615 186.952 307.543 186.168C308.487 185.368 309.671 184.968 311.095 184.968C312.023 184.968 312.887 185.152 313.687 185.52C314.503 185.872 315.191 186.336 315.751 186.912L314.671 188.208C314.191 187.744 313.655 187.384 313.063 187.128C312.487 186.856 311.831 186.72 311.095 186.72C310.215 186.72 309.503 186.928 308.959 187.344C308.431 187.76 308.167 188.32 308.167 189.024C308.167 189.776 308.447 190.336 309.007 190.704C309.567 191.072 310.159 191.384 310.783 191.64L313.015 192.6C313.927 193 314.695 193.512 315.319 194.136C315.943 194.744 316.255 195.632 316.255 196.8C316.255 198.048 315.775 199.112 314.815 199.992C313.871 200.856 312.567 201.288 310.903 201.288ZM322.151 201V186.936H317.399V185.256H328.919V186.936H324.167V201H322.151ZM336.558 201V185.256H340.494C342.926 185.256 344.774 185.936 346.038 187.296C347.302 188.64 347.934 190.56 347.934 193.056C347.934 195.568 347.302 197.52 346.038 198.912C344.774 200.304 342.958 201 340.59 201H336.558ZM338.55 199.368H340.35C342.19 199.368 343.566 198.816 344.478 197.712C345.406 196.608 345.87 195.056 345.87 193.056C345.87 191.072 345.406 189.552 344.478 188.496C343.566 187.424 342.19 186.888 340.35 186.888H338.55V199.368ZM353.802 192.192L353.058 194.592H357.786L357.042 192.192C356.754 191.312 356.482 190.44 356.226 189.576C355.97 188.696 355.714 187.8 355.458 186.888H355.362C355.122 187.8 354.874 188.696 354.618 189.576C354.362 190.44 354.09 191.312 353.802 192.192ZM359.778 201L358.29 196.2H352.554L351.042 201H349.002L354.33 185.256H356.586L361.914 201H359.778ZM366.36 201V194.904L361.632 185.256H363.768L365.808 189.696C366.064 190.272 366.312 190.84 366.552 191.4C366.808 191.96 367.064 192.536 367.32 193.128H367.416C367.688 192.536 367.96 191.96 368.232 191.4C368.504 190.84 368.76 190.272 369 189.696L371.016 185.256H373.104L368.376 194.904V201H366.36Z" fill="black"/>
</svg>
